<svg width="32" height="32" viewBox="0 0 32 32" fill="none" xmlns="http://www.w3.org/2000/svg">
<path d="M14.6667 22.6666H17.3334V17.3333H22.6667V14.6666H17.3334V9.33329H14.6667V14.6666H9.33342V17.3333H14.6667V22.6666ZM16.0001 29.3333C14.1556 29.3333 12.4223 28.9888 10.8001 28.3C9.17786 27.5888 7.76675 26.6333 6.56675 25.4333C5.36675 24.2333 4.41119 22.8222 3.70008 21.2C3.01119 19.5777 2.66675 17.8444 2.66675 16C2.66675 14.1555 3.01119 12.4222 3.70008 10.8C4.41119 9.17774 5.36675 7.76662 6.56675 6.56663C7.76675 5.36662 9.17786 4.42218 10.8001 3.73329C12.4223 3.02218 14.1556 2.66663 16.0001 2.66663C17.8445 2.66663 19.5779 3.02218 21.2001 3.73329C22.8223 4.42218 24.2334 5.36662 25.4334 6.56663C26.6334 7.76662 27.5779 9.17774 28.2667 10.8C28.9779 12.4222 29.3334 14.1555 29.3334 16C29.3334 17.8444 28.9779 19.5777 28.2667 21.2C27.5779 22.8222 26.6334 24.2333 25.4334 25.4333C24.2334 26.6333 22.8223 27.5888 21.2001 28.3C19.5779 28.9888 17.8445 29.3333 16.0001 29.3333ZM16.0001 26.6666C18.9779 26.6666 21.5001 25.6333 23.5667 23.5666C25.6334 21.5 26.6667 18.9777 26.6667 16C26.6667 13.0222 25.6334 10.5 23.5667 8.43329C21.5001 6.36663 18.9779 5.33329 16.0001 5.33329C13.0223 5.33329 10.5001 6.36663 8.43341 8.43329C6.36675 10.5 5.33341 13.0222 5.33341 16C5.33341 18.9777 6.36675 21.5 8.43341 23.5666C10.5001 25.6333 13.0223 26.6666 16.0001 26.6666Z" fill="#1D1B20"/>
</svg>
